<svg width="215" height="250" viewBox="0 0 215 250" fill="none" xmlns="http://www.w3.org/2000/svg">
<rect x="20" y="19" width="174" height="153" rx="41" fill="#6384C5"/>
<path fill-rule="evenodd" clip-rule="evenodd" d="M107.5 32C102.023 32 92.8712 34.1034 84.259 36.445C75.4484 38.8263 66.5663 41.6441 61.3434 43.3506C59.1598 44.0718 57.2238 45.3943 55.7579 47.1662C54.2921 48.9381 53.3558 51.0876 53.0567 53.3677C48.3259 88.9039 59.3035 115.241 72.6226 132.663C78.2708 140.116 85.0053 146.68 92.6013 152.134C95.6652 154.301 98.5068 155.96 100.92 157.095C103.142 158.143 105.531 159 107.5 159C109.468 159 111.85 158.143 114.08 157.095C116.989 155.681 119.772 154.021 122.399 152.134C129.995 146.68 136.729 140.117 142.377 132.663C155.696 115.241 166.674 88.9039 161.943 53.3677C161.645 51.0865 160.709 48.9358 159.243 47.1625C157.777 45.3892 155.841 44.0652 153.657 43.3427C146.075 40.8568 138.434 38.5542 130.741 36.4371C122.129 34.1114 112.977 32 107.5 32ZM107.5 71.6875C110.312 71.6833 113.034 72.6744 115.185 74.4852C117.336 76.2959 118.777 78.8096 119.253 81.5809C119.728 84.3522 119.207 87.2023 117.782 89.6264C116.358 92.0506 114.121 93.8922 111.469 94.8253L114.525 110.621C114.636 111.195 114.619 111.787 114.474 112.355C114.33 112.922 114.062 113.45 113.689 113.901C113.317 114.352 112.849 114.716 112.32 114.965C111.791 115.215 111.213 115.344 110.627 115.344H104.373C103.788 115.343 103.211 115.213 102.683 114.963C102.154 114.713 101.688 114.349 101.316 113.898C100.945 113.447 100.677 112.919 100.533 112.353C100.389 111.786 100.372 111.195 100.483 110.621L103.531 94.8253C100.879 93.8922 98.6422 92.0506 97.2175 89.6264C95.7928 87.2023 95.272 84.3522 95.7474 81.5809C96.2227 78.8096 97.6635 76.2959 99.8146 74.4852C101.966 72.6744 104.688 71.6833 107.5 71.6875V71.6875Z" fill="#383B3F"/>
<path d="M44.28 218C43.928 218 43.656 217.904 43.464 217.712C43.272 217.488 43.176 217.216 43.176 216.896V185.552C43.176 185.2 43.272 184.928 43.464 184.736C43.656 184.512 43.928 184.4 44.28 184.4H55.176C58.472 184.4 61.128 184.896 63.144 185.888C65.16 186.88 66.632 188.352 67.56 190.304C68.488 192.224 68.968 194.592 69 197.408C69.032 198.848 69.048 200.112 69.048 201.2C69.048 202.288 69.032 203.536 69 204.944C68.936 207.888 68.44 210.336 67.512 212.288C66.616 214.208 65.176 215.648 63.192 216.608C61.24 217.536 58.648 218 55.416 218H44.28ZM47.88 213.92H55.176C57.384 213.92 59.144 213.616 60.456 213.008C61.768 212.4 62.712 211.424 63.288 210.08C63.896 208.736 64.216 206.96 64.248 204.752C64.312 203.792 64.344 202.96 64.344 202.256C64.344 201.52 64.344 200.8 64.344 200.096C64.344 199.36 64.312 198.528 64.248 197.6C64.184 194.496 63.448 192.208 62.04 190.736C60.632 189.232 58.264 188.48 54.936 188.48H47.88V213.92ZM76.7498 218C76.4298 218 76.1578 217.904 75.9338 217.712C75.7418 217.488 75.6458 217.216 75.6458 216.896V194.144C75.6458 193.824 75.7418 193.568 75.9338 193.376C76.1578 193.152 76.4298 193.04 76.7498 193.04H79.0538C79.3738 193.04 79.6298 193.152 79.8218 193.376C80.0138 193.568 80.1098 193.824 80.1098 194.144V216.896C80.1098 217.216 80.0138 217.488 79.8218 217.712C79.6298 217.904 79.3738 218 79.0538 218H76.7498ZM76.3658 188.384C76.0458 188.384 75.7738 188.288 75.5498 188.096C75.3578 187.872 75.2617 187.6 75.2617 187.28V184.688C75.2617 184.368 75.3578 184.112 75.5498 183.92C75.7738 183.696 76.0458 183.584 76.3658 183.584H79.3898C79.7098 183.584 79.9658 183.696 80.1578 183.92C80.3818 184.112 80.4938 184.368 80.4938 184.688V187.28C80.4938 187.6 80.3818 187.872 80.1578 188.096C79.9658 188.288 79.7098 188.384 79.3898 188.384H76.3658ZM88.8435 218C88.5235 218 88.2515 217.904 88.0275 217.712C87.8355 217.488 87.7395 217.216 87.7395 216.896V194.192C87.7395 193.872 87.8355 193.6 88.0275 193.376C88.2515 193.152 88.5235 193.04 88.8435 193.04H91.0515C91.3715 193.04 91.6435 193.152 91.8675 193.376C92.0915 193.6 92.2035 193.872 92.2035 194.192V196.304C92.8435 195.216 93.7235 194.4 94.8435 193.856C95.9635 193.312 97.3075 193.04 98.8755 193.04H100.796C101.116 193.04 101.372 193.152 101.564 193.376C101.756 193.568 101.852 193.824 101.852 194.144V196.112C101.852 196.432 101.756 196.688 101.564 196.88C101.372 197.072 101.116 197.168 100.796 197.168H97.9155C96.1875 197.168 94.8275 197.68 93.8355 198.704C92.8435 199.696 92.3475 201.056 92.3475 202.784V216.896C92.3475 217.216 92.2355 217.488 92.0115 217.712C91.7875 217.904 91.5155 218 91.1955 218H88.8435ZM115.441 218.48C112.145 218.48 109.521 217.472 107.569 215.456C105.617 213.408 104.545 210.624 104.353 207.104C104.321 206.688 104.305 206.16 104.305 205.52C104.305 204.848 104.321 204.304 104.353 203.888C104.481 201.616 105.009 199.632 105.937 197.936C106.865 196.208 108.129 194.88 109.729 193.952C111.361 193.024 113.265 192.56 115.441 192.56C117.873 192.56 119.905 193.072 121.537 194.096C123.201 195.12 124.465 196.576 125.329 198.464C126.193 200.352 126.625 202.56 126.625 205.088V205.904C126.625 206.256 126.513 206.528 126.289 206.72C126.097 206.912 125.841 207.008 125.521 207.008H108.913C108.913 207.04 108.913 207.104 108.913 207.2C108.913 207.296 108.913 207.376 108.913 207.44C108.977 208.752 109.265 209.984 109.777 211.136C110.289 212.256 111.025 213.168 111.985 213.872C112.945 214.576 114.097 214.928 115.441 214.928C116.593 214.928 117.553 214.752 118.321 214.4C119.089 214.048 119.713 213.664 120.193 213.248C120.673 212.8 120.993 212.464 121.153 212.24C121.441 211.824 121.665 211.584 121.825 211.52C121.985 211.424 122.241 211.376 122.593 211.376H124.897C125.217 211.376 125.473 211.472 125.665 211.664C125.889 211.824 125.985 212.064 125.953 212.384C125.921 212.864 125.665 213.456 125.185 214.16C124.705 214.832 124.017 215.504 123.121 216.176C122.225 216.848 121.137 217.408 119.857 217.856C118.577 218.272 117.105 218.48 115.441 218.48ZM108.913 203.696H122.065V203.552C122.065 202.112 121.793 200.832 121.249 199.712C120.737 198.592 119.985 197.712 118.993 197.072C118.001 196.4 116.817 196.064 115.441 196.064C114.065 196.064 112.881 196.4 111.889 197.072C110.929 197.712 110.193 198.592 109.681 199.712C109.169 200.832 108.913 202.112 108.913 203.552V203.696ZM142.445 218.48C140.173 218.48 138.205 218.048 136.541 217.184C134.909 216.288 133.645 215.024 132.749 213.392C131.853 211.728 131.373 209.744 131.309 207.44C131.277 206.96 131.261 206.32 131.261 205.52C131.261 204.72 131.277 204.08 131.309 203.6C131.373 201.296 131.853 199.328 132.749 197.696C133.645 196.032 134.909 194.768 136.541 193.904C138.205 193.008 140.173 192.56 142.445 192.56C144.301 192.56 145.885 192.816 147.197 193.328C148.541 193.84 149.645 194.496 150.509 195.296C151.373 196.096 152.013 196.96 152.429 197.888C152.877 198.816 153.117 199.696 153.149 200.528C153.181 200.848 153.085 201.104 152.861 201.296C152.637 201.488 152.365 201.584 152.045 201.584H149.741C149.421 201.584 149.181 201.52 149.021 201.392C148.861 201.232 148.701 200.976 148.541 200.624C147.965 199.056 147.181 197.952 146.189 197.312C145.197 196.672 143.965 196.352 142.493 196.352C140.573 196.352 139.005 196.944 137.789 198.128C136.605 199.312 135.965 201.216 135.868 203.84C135.837 204.992 135.837 206.112 135.868 207.2C135.965 209.856 136.605 211.776 137.789 212.96C139.005 214.112 140.573 214.688 142.493 214.688C143.965 214.688 145.197 214.368 146.189 213.728C147.181 213.088 147.965 211.984 148.541 210.416C148.701 210.064 148.861 209.824 149.021 209.696C149.181 209.536 149.421 209.456 149.741 209.456H152.045C152.365 209.456 152.637 209.552 152.861 209.744C153.085 209.936 153.181 210.192 153.149 210.512C153.117 211.184 152.973 211.872 152.717 212.576C152.461 213.28 152.045 214 151.469 214.736C150.925 215.44 150.237 216.08 149.405 216.656C148.573 217.2 147.565 217.648 146.381 218C145.229 218.32 143.917 218.48 142.445 218.48ZM168.593 218C166.801 218 165.345 217.664 164.225 216.992C163.105 216.288 162.289 215.312 161.777 214.064C161.265 212.784 161.009 211.28 161.009 209.552V196.88H157.265C156.945 196.88 156.673 196.784 156.449 196.592C156.257 196.368 156.161 196.096 156.161 195.776V194.144C156.161 193.824 156.257 193.568 156.449 193.376C156.673 193.152 156.945 193.04 157.265 193.04H161.009V185.024C161.009 184.704 161.105 184.448 161.297 184.256C161.521 184.032 161.793 183.92 162.113 183.92H164.369C164.689 183.92 164.945 184.032 165.137 184.256C165.361 184.448 165.473 184.704 165.473 185.024V193.04H171.425C171.745 193.04 172.001 193.152 172.193 193.376C172.417 193.568 172.529 193.824 172.529 194.144V195.776C172.529 196.096 172.417 196.368 172.193 196.592C172.001 196.784 171.745 196.88 171.425 196.88H165.473V209.216C165.473 210.72 165.729 211.904 166.241 212.768C166.753 213.632 167.665 214.064 168.977 214.064H171.905C172.225 214.064 172.481 214.176 172.673 214.4C172.897 214.592 173.009 214.848 173.009 215.168V216.896C173.009 217.216 172.897 217.488 172.673 217.712C172.481 217.904 172.225 218 171.905 218H168.593Z" fill="black"/>
<path d="M28 231H194" stroke="#6384C5" stroke-width="6" stroke-linecap="round"/>
</svg>
