<svg width="174" height="153" viewBox="0 0 174 153" fill="none" xmlns="http://www.w3.org/2000/svg">
<rect width="174" height="153" rx="41" fill="#6384C5"/>
<path fill-rule="evenodd" clip-rule="evenodd" d="M87.5 13C82.0231 13 72.8712 15.1034 64.259 17.445C55.4484 19.8263 46.5663 22.6441 41.3434 24.3506C39.1598 25.0718 37.2238 26.3943 35.7579 28.1662C34.2921 29.9381 33.3558 32.0876 33.0567 34.3677C28.3259 69.9039 39.3035 96.2406 52.6226 113.663C58.2708 121.116 65.0053 127.68 72.6013 133.134C75.6652 135.301 78.5068 136.96 80.9198 138.095C83.1423 139.143 85.5315 140 87.5 140C89.4685 140 91.8497 139.143 94.0802 138.095C96.9892 136.681 99.7721 135.021 102.399 133.134C109.995 127.68 116.729 121.117 122.377 113.663C135.696 96.2406 146.674 69.9039 141.943 34.3677C141.645 32.0865 140.709 29.9358 139.243 28.1625C137.777 26.3892 135.841 25.0652 133.657 24.3427C126.075 21.8568 118.434 19.5542 110.741 17.4371C102.129 15.1114 92.9769 13 87.5 13ZM87.5 52.6875C90.3118 52.6833 93.0343 53.6744 95.1854 55.4852C97.3364 57.2959 98.7773 59.8096 99.2526 62.5809C99.728 65.3522 99.2072 68.2023 97.7825 70.6264C96.3578 73.0506 94.1212 74.8922 91.4687 75.8253L94.5247 91.6209C94.6359 92.1954 94.6186 92.7874 94.4742 93.3545C94.3298 93.9216 94.0617 94.4497 93.6893 94.901C93.3168 95.3524 92.8492 95.7158 92.3199 95.9652C91.7905 96.2146 91.2125 96.3439 90.6274 96.3438H84.3726C83.7881 96.3427 83.2111 96.2126 82.6827 95.9626C82.1543 95.7127 81.6877 95.3492 81.3161 94.898C80.9445 94.4468 80.6772 93.9191 80.5332 93.3526C80.3893 92.7861 80.3722 92.1948 80.4832 91.6209L83.5312 75.8253C80.8788 74.8922 78.6422 73.0506 77.2175 70.6264C75.7928 68.2023 75.272 65.3522 75.7474 62.5809C76.2227 59.8096 77.6635 57.2959 79.8146 55.4852C81.9657 53.6744 84.6882 52.6833 87.5 52.6875V52.6875Z" fill="#383B3F"/>
</svg>
